<svg data-v-0dd9719b="" version="1.0" xmlns="http://www.w3.org/2000/svg" xmlns:xlink="http://www.w3.org/1999/xlink" width="100%" height="100%" viewBox="0 0 340.000000 250.000000" preserveAspectRatio="xMidYMid meet" color-interpolation-filters="sRGB" style="margin: auto;"> <rect data-v-0dd9719b="" x="0" y="0" width="100%" height="100%" fill="#fff" fill-opacity="1" class="background"></rect> <rect data-v-0dd9719b="" x="0" y="0" width="100%" height="100%" fill="url(#watermark)" fill-opacity="1" class="watermarklayer"></rect> <g data-v-0dd9719b="" fill="#333" class="icon-text-wrapper icon-svg-group iconsvg" transform="translate(55.63500213623047,95.04702568054199)"><g class="iconsvg-imagesvg" transform="translate(0,0)"><g><rect fill="#333" fill-opacity="0" stroke-width="2" x="0" y="0" width="60" height="59.90594766217039" class="image-rect"></rect> <svg x="0" y="0" width="60" height="59.90594766217039" filtersec="colorsb5709158483" class="image-svg-svg primary" style="overflow: visible;"><svg xmlns="http://www.w3.org/2000/svg" viewBox="0.007287877146154642 -2.980246733841341e-7 90.99272155761719 90.8499984741211"><g fill-rule="evenodd"><path d="M23.55 5.63a44.66 44.66 0 0 1 7.13-3.16 220.07 220.07 0 0 0-4.28 44c0 5.52.22 11.06.65 16.59-.92-4.8-1.67-9.62-2.28-14.45a218 218 0 0 1-1.3-41.88zM10.81 74.91a45.51 45.51 0 0 1-9.56-40 243.93 243.93 0 0 0 4.22 21.48C7 62.63 8.76 68.82 10.81 74.91z" fill="#7c6d25"></path><path d="M26 86.6a45.51 45.51 0 0 1-4.68-2.6A207.1 207.1 0 0 1 12 54.81 236.29 236.29 0 0 1 6.41 22.2a45.57 45.57 0 0 1 10.16-11.83 227.25 227.25 0 0 0 1.57 39A219.66 219.66 0 0 0 26 86.6z" fill="#b1a44c"></path><path d="M89.4 57.34A45.52 45.52 0 0 1 72.59 82q2.13-4.38 4.61-8.59a85.91 85.91 0 0 1 9.8-13.5c.76-.91 1.56-1.74 2.4-2.57z" fill="#7c6d25"></path><path d="M77.43 13.11A45.36 45.36 0 0 1 91 45.48v1.64a63.66 63.66 0 0 0-9 8.33A92.2 92.2 0 0 0 71.46 70c-2 3.32-3.83 6.82-5.54 10.47q-1.64 3.45-3.1 7.07a45.39 45.39 0 0 1-8.38 2.54 203.25 203.25 0 0 1 6.44-38.23 144.78 144.78 0 0 1 14.7-35.74c.61-1.03 1.23-2.03 1.85-3z" fill="#b1a44c"></path><path d="M60.38 2.5a45.4 45.4 0 0 1 11.91 6.24c-.13.22-.27.43-.41.64-.7 1.09-1.38 2.2-2 3.32a150.68 150.68 0 0 0-15.45 37.39 205.83 205.83 0 0 0-6 32.23A212.7 212.7 0 0 1 49.88 45a179.21 179.21 0 0 1 10.5-42.5z" fill="#7c6d25"></path><path d="M42.32 90.85a219.31 219.31 0 0 1 .93-46.72A188 188 0 0 1 53.88.78a45.57 45.57 0 0 0-8.4-.78 46.15 46.15 0 0 0-7.58.63 213.29 213.29 0 0 0-4.82 45.79 199.63 199.63 0 0 0 4.82 43.91c1.45.24 2.93.42 4.42.52z" fill="#b1a44c"></path></g></svg></svg> <!----></g></g> <g transform="translate(67,6.071725845336914)"><g data-gra="path-name" fill-rule="" class="tp-name iconsvg-namesvg" transform="translate(0,0)"><g transform="scale(1)"><g><path d="M3.6-20.84L3.6-11.12C3.6-10.26 4.09-9.76 4.95-9.76L15.52-9.76C16.11-9.76 16.43-9.54 16.43-9.13 16.43-8.73 16.11-8.46 15.52-8.46L4.09-8.46C3.24-8.46 2.75-7.96 2.75-7.11L2.75-6.39C2.75-5.54 3.24-5.04 4.09-5.04L15.52-5.04C16.11-5.04 16.43-4.81 16.43-4.41 16.43-4 16.11-3.78 15.52-3.78L3.24-3.78C2.38-3.78 1.89-3.28 1.89-2.43L1.89-1.71C1.89-0.85 2.38-0.36 3.24-0.36L38.16-0.36C39.02-0.36 39.51-0.85 39.51-1.71L39.51-2.43C39.51-3.28 39.02-3.78 38.16-3.78L25.88-3.78C25.29-3.78 24.97-4 24.97-4.41 24.97-4.81 25.29-5.04 25.88-5.04L37.3-5.04C38.16-5.04 38.66-5.54 38.66-6.39L38.66-7.11C38.66-7.96 38.16-8.46 37.3-8.46L25.88-8.46C25.29-8.46 24.97-8.73 24.97-9.13 24.97-9.54 25.29-9.76 25.88-9.76L36.45-9.76C37.3-9.76 37.8-10.26 37.8-11.12L37.8-20.84C37.8-21.69 37.3-22.18 36.45-22.18L25.88-22.18C25.29-22.18 24.97-22.41 24.97-22.72 24.97-23.04 25.29-23.27 25.88-23.27L37.3-23.27C38.16-23.27 38.66-23.76 38.66-24.61L38.66-25.33C38.66-26.19 38.16-26.68 37.3-26.68L25.88-26.68C25.29-26.68 24.97-27 24.97-27.49 24.97-27.99 25.33-28.26 25.88-28.26L36.45-28.53C37.3-28.53 37.8-29.07 37.8-29.92L37.8-30.64C37.8-31.5 37.3-31.95 36.45-31.95L4.95-31.18C4.09-31.18 3.6-30.64 3.6-29.79L3.6-29.07C3.6-28.21 4.09-27.77 4.95-27.77L15.52-28.04C16.11-28.04 16.43-27.77 16.43-27.36 16.43-26.95 16.11-26.68 15.52-26.68L4.09-26.68C3.24-26.68 2.75-26.19 2.75-25.33L2.75-24.61C2.75-23.76 3.24-23.27 4.09-23.27L15.52-23.27C16.11-23.27 16.43-23.04 16.43-22.72 16.43-22.41 16.11-22.18 15.52-22.18L4.95-22.18C4.09-22.18 3.6-21.69 3.6-20.84ZM30.96-18.13C30.96-17.68 30.64-17.46 30.06-17.46L25.88-17.46C25.29-17.46 24.97-17.73 24.97-18.13 24.97-18.54 25.29-18.77 25.88-18.77L30.06-18.77C30.64-18.77 30.96-18.54 30.96-18.13ZM24.97-13.86C24.97-14.26 25.29-14.49 25.88-14.49L30.06-14.49C30.64-14.49 30.96-14.26 30.96-13.86 30.96-13.46 30.64-13.18 30.06-13.18L25.88-13.18C25.29-13.18 24.97-13.46 24.97-13.86ZM10.44-13.86C10.44-14.26 10.75-14.49 11.34-14.49L15.52-14.49C16.11-14.49 16.43-14.26 16.43-13.86 16.43-13.46 16.11-13.18 15.52-13.18L11.34-13.18C10.75-13.18 10.44-13.46 10.44-13.86ZM11.34-18.77L15.52-18.77C16.11-18.77 16.43-18.54 16.43-18.13 16.43-17.73 16.11-17.46 15.52-17.46L11.34-17.46C10.75-17.46 10.44-17.73 10.44-18.13 10.44-18.54 10.75-18.77 11.34-18.77ZM54.09 0.32L59.71 0.32C60.48 0.32 60.97 0 61.24-0.72L65.07-10.39C65.34-11.12 65.92-11.16 66.28-10.48L71.86-0.58C72.22 0.09 72.77 0.36 73.48 0.36L78.97 0.36C80.06 0.36 80.41-0.36 79.88-1.26L72.72-13.05C72.36-13.68 72.58-14.13 73.3-14.13L77.89-14.13C78.75-14.13 79.25-14.63 79.25-15.48L79.25-17.41C79.25-18.27 78.75-18.77 77.89-18.77L69.53-18.77C68.85-18.77 68.58-19.17 68.8-19.8L69.7-22C70.06-22.95 69.66-23.58 68.67-23.58L63.63-23.58C62.86-23.58 62.33-23.22 62.05-22.54L60.75-19.44C60.57-18.95 60.21-18.77 59.71-18.77L55.21-18.77C54.36-18.77 53.86-18.27 53.86-17.41L53.86-15.48C53.86-14.63 54.36-14.13 55.21-14.13L57.38-14.13C58.05-14.13 58.32-13.72 58.05-13.09L53.05-1.26C52.65-0.32 53.1 0.32 54.09 0.32ZM44.14-28.08L44.59-27.27C44.82-26.86 44.91-26.55 44.86-26.14L43.42-0.99C43.38-0.14 43.83 0.4 44.73 0.4L49.72 0.4C50.58 0.4 51.07-0.04 51.12-0.9L52.47-24.3C52.52-24.84 52.83-25.15 53.37-25.15L78.75-25.15C79.6-25.15 80.1-25.65 80.1-26.5L80.1-28.08C80.1-28.93 79.6-29.43 78.75-29.43L69.03-29.43C68.44-29.43 68.13-29.74 68.13-30.33L68.13-30.73C68.13-31.54 67.63-31.99 66.78-31.99L60.21-31.99C58.99-31.99 58.68-31.18 59.53-30.33L59.58-30.33 59.58-29.88C59.58-29.61 59.27-29.43 58.68-29.43L45.23-29.43C44.14-29.43 43.7-28.89 44.14-28.08ZM113.22 0.32L118.39 0.32C120.06 0.32 121.45-0.9 121.45-2.65L121.45-29.34C121.45-30.2 120.96-30.69 120.1-30.69L97.11-30.69C96.25-30.69 95.76-30.2 95.76-29.34L95.76-27.77C95.76-26.91 96.25-26.41 97.11-26.41L113.58-26.41C114.16-26.41 114.48-26.1 114.48-25.52L114.48-4.5C114.48-4.05 114.34-3.73 114.07-3.38L112.45-1.35C111.73-0.45 112.09 0.32 113.22 0.32ZM95.04-15.12L95-13.72C95-12.87 95.49-12.38 96.34-12.38L99.13-12.38C99.72-12.38 100.03-12.06 100.03-11.47L100.08-9.67C100.08-9.09 99.77-8.78 99.18-8.78L95.89-8.78C95.04-8.78 94.55-8.28 94.55-7.42L94.55-5.94C94.55-5.08 95.04-4.59 95.89-4.59L111.51-4.59C112.36-4.59 112.86-5.08 112.86-5.94L112.86-7.42C112.86-8.28 112.36-8.78 111.51-8.78L108.22-8.78C107.64-8.78 107.32-9.09 107.32-9.67L107.28-11.47C107.28-12.06 107.59-12.38 108.18-12.38L111.02-12.38C111.87-12.38 112.36-12.82 112.36-13.72L112.41-15.12C112.41-15.97 111.91-16.47 111.06-16.47L108.22-16.47C107.64-16.47 107.32-16.79 107.32-17.37L107.32-19.26C107.32-19.84 107.64-20.16 108.22-20.16L111.02-20.16C111.87-20.16 112.36-20.65 112.36-21.51L112.36-22.9C112.36-23.76 111.87-24.25 111.02-24.25L96.39-24.25C95.53-24.25 95.04-23.76 95.04-22.9L95.04-21.51C95.04-20.65 95.53-20.16 96.39-20.16L99.18-20.16C99.77-20.16 100.08-19.84 100.08-19.26L100.08-17.37C100.08-16.79 99.77-16.47 99.18-16.47L96.39-16.47C95.53-16.47 95.04-16.02 95.04-15.12ZM85.99-23.4L85.99-0.94C85.99-0.09 86.49 0.4 87.34 0.4L91.58 0.4C92.43 0.4 92.92-0.09 92.92-0.94L92.92-23.4C92.92-24.25 92.43-24.75 91.58-24.75L87.34-24.75C86.49-24.75 85.99-24.25 85.99-23.4ZM85.81-29.7L86.27-27.04C86.4-26.19 86.89-25.83 87.7-25.83L91.89-25.83C92.79-25.83 93.28-26.32 93.15-27.27L92.7-29.92C92.56-30.78 92.07-31.14 91.26-31.14L87.08-31.14C86.17-31.14 85.68-30.64 85.81-29.7ZM135.81-12.82L135.81-4.72C135.81-4.14 135.49-3.82 134.91-3.82L133.33-3.82C132.57-3.82 132.03-3.51 131.71-2.83L130.95-1.21C130.5-0.27 130.91 0.36 131.94 0.36L138.91 0.36C140.58 0.36 141.97-0.85 141.97-2.61L141.97-16.65C141.97-17.5 141.48-18 140.63-18 140.04-18 139.77-18.4 139.86-18.99L141.03-26.1C141.12-26.73 141.16-27.13 141.16-27.72L141.16-29.83C141.16-30.69 140.67-31.18 139.81-31.18L128.2-31.18C127.35-31.18 126.85-30.69 126.85-29.83L126.85-28.26C126.85-27.4 127.35-26.91 128.2-26.91L134.86-26.91C135.45-26.91 135.76-26.5 135.67-25.92L134.41-18.81C134.32-18.27 134.01-18 133.47-18L133.24-18C132.66-18 132.3-18.36 132.39-18.95L133.16-23.8C133.29-24.75 132.79-25.24 131.89-25.24L129.51-25.24C128.7-25.24 128.16-24.88 128.02-24.03L126.58-15.16C126.45-14.22 126.94-13.72 127.84-13.72L134.91-13.72C135.49-13.72 135.81-13.41 135.81-12.82ZM126.27-9.58L126.22-7.92C126.22-6.97 126.76-6.52 127.66-6.61L133.51-7.25C134.32-7.33 134.77-7.83 134.77-8.64L134.77-10.3C134.77-11.21 134.23-11.7 133.33-11.61L127.53-10.98C126.72-10.89 126.27-10.39 126.27-9.58ZM157.09-9.4L157.09-20.7C157.09-21.2 157.32-21.51 157.68-21.64 158.04-21.73 158.26-21.38 158.26-20.75L158.26-11.7C158.26-11.25 158.13-10.93 157.86-10.57L157.77-10.44C157.5-10.13 158.26-9.81 159.39-9.81L160.29-9.81C161.59-9.81 163.39-11.52 163.39-12.82L163.39-26.14C163.39-27.09 162.76-27.54 161.86-27.27L158.08-26.19C157.5-26.01 157.09-26.32 157.09-26.95L157.09-30.64C157.09-31.5 156.6-31.99 155.74-31.99L151.65-31.99C150.57-31.99 150.16-31.27 150.75-30.38L151.11-29.79C151.33-29.38 151.42-29.11 151.42-28.71L151.42-25.11C151.42-24.57 151.2-24.25 150.75-24.12 150.34-23.98 150.03-24.3 150.03-24.93L150.03-27.22C150.03-28.08 149.53-28.57 148.68-28.57L144-28.57C142.92-28.57 142.51-27.86 143.1-26.95L143.46-26.37C143.69-25.96 143.77-25.7 143.77-25.29L143.77-22.9C143.77-22.36 143.55-22.05 143.1-21.91 142.65-21.78 142.42-21.33 142.42-20.56L142.38-18.9C142.38-18.27 142.6-17.86 142.96-17.68 143.46-17.5 143.77-17.41 143.77-16.88L143.77-1.71C143.77-0.85 144.27-0.36 145.13-0.36L162.27-0.36C163.13-0.36 163.62-0.85 163.62-1.71L163.62-6.3C163.62-7.51 162.81-7.83 161.95-6.97L160.92-5.94C160.56-5.58 160.29-5.49 159.84-5.49L150.93-5.49C150.34-5.49 150.03-5.8 150.03-6.39L150.03-18.68C150.03-19.17 150.25-19.48 150.75-19.66 151.15-19.8 151.42-19.44 151.42-18.81L151.42-9.4C151.42-8.55 151.92-8.05 152.77-8.05L155.74-8.05C156.6-8.05 157.09-8.55 157.09-9.4Z" transform="translate(-1.8899999856948853, 31.989999771118164)"></path></g> <!----> <!----> <!----> <!----> <!----> <!----> <!----></g></g> <g data-gra="path-slogan" fill-rule="" class="tp-slogan iconsvg-slogansvg" fill="#333" transform="translate(19.204998016357422,38.38999938964844)"><!----> <!----> <g transform="scale(1, 1)"><g transform="scale(1)"><path d="M8.06-6.05L8.06-6.05L6.94-6.05Q6.52-7.78 4.55-7.83L4.55-7.83Q1.83-7.69 1.73-4.36L1.73-4.36Q1.73-0.80 4.59-0.80L4.59-0.80Q6.56-0.84 7.03-3.19L7.03-3.19L8.16-3.19Q7.64 0.05 4.36 0.14L4.36 0.14Q0.61 0 0.52-4.31L0.52-4.31Q0.70-8.63 4.55-8.81L4.55-8.81Q7.59-8.72 8.06-6.05ZM10.69-5.06L15.19-5.06L15.19-8.58L16.36-8.58L16.36 0L15.19 0L15.19-3.98L10.69-3.98L10.69 0L9.52 0L9.52-8.58L10.69-8.58L10.69-5.06ZM24.94-4.27L24.94-4.27Q24.75-7.64 21.94-7.83L21.94-7.83Q19.08-7.69 18.94-4.27L18.94-4.27Q19.08-0.94 21.94-0.80L21.94-0.80Q24.75-0.98 24.94-4.27ZM26.11-4.27L26.11-4.27Q25.83 0 21.94 0.14L21.94 0.14Q18 0 17.72-4.27L17.72-4.27Q17.95-8.72 21.94-8.81L21.94-8.81Q25.83-8.67 26.11-4.27ZM28.88-8.58L33.19-1.64L33.19-8.58L34.31-8.58L34.31 0L33 0L28.64-6.94L28.59-6.94L28.59 0L27.47 0L27.47-8.58L28.88-8.58ZM42.52-3.61L39.89-3.61L39.89-4.59L43.64-4.59L43.64 0L42.89 0L42.61-1.08Q41.63 0.09 39.80 0.14L39.80 0.14Q38.06 0.14 37.13-0.75L37.13-0.75Q35.72-2.06 35.77-4.36L35.77-4.36Q36.09-8.63 39.84-8.81L39.84-8.81Q43.03-8.63 43.50-6L43.50-6L42.38-6Q41.91-7.78 39.80-7.83L39.80-7.83Q37.13-7.64 36.98-4.31L36.98-4.31Q36.98-0.75 39.84-0.75L39.84-0.75Q40.88-0.75 41.63-1.31L41.63-1.31Q42.56-2.06 42.52-3.61L42.52-3.61ZM50.44-1.08L49.55-1.78L50.16-2.48L51.23-1.64Q52.22-2.63 52.22-4.27L52.22-4.27Q52.03-7.64 49.22-7.83L49.22-7.83Q46.36-7.69 46.22-4.27L46.22-4.27Q46.36-0.94 49.22-0.80L49.22-0.80Q49.92-0.80 50.44-1.08L50.44-1.08ZM52.17-0.94L53.30-0.05L52.73 0.56L51.42-0.33Q50.58 0.14 49.22 0.14L49.22 0.14Q45.28 0 45-4.27L45-4.27Q45.23-8.72 49.22-8.81L49.22-8.81Q53.11-8.67 53.39-4.27L53.39-4.27Q53.34-2.20 52.17-0.94L52.17-0.94ZM54.94-8.58L56.11-8.58L56.11 0L54.94 0L54.94-8.58ZM59.48-8.58L63.80-1.64L63.80-8.58L64.92-8.58L64.92 0L63.61 0L59.25-6.94L59.20-6.94L59.20 0L58.08 0L58.08-8.58L59.48-8.58ZM73.13-3.61L70.50-3.61L70.50-4.59L74.25-4.59L74.25 0L73.50 0L73.22-1.08Q72.23 0.09 70.41 0.14L70.41 0.14Q68.67 0.14 67.73-0.75L67.73-0.75Q66.33-2.06 66.38-4.36L66.38-4.36Q66.70-8.63 70.45-8.81L70.45-8.81Q73.64-8.63 74.11-6L74.11-6L72.98-6Q72.52-7.78 70.41-7.83L70.41-7.83Q67.73-7.64 67.59-4.31L67.59-4.31Q67.59-0.75 70.45-0.75L70.45-0.75Q71.48-0.75 72.23-1.31L72.23-1.31Q73.17-2.06 73.13-3.61L73.13-3.61ZM83.48-3.70L80.67-3.70L80.67 0L79.50 0L79.50-8.58L83.48-8.58Q86.34-8.58 86.34-6.28L86.34-6.28Q86.34-4.88 85.13-4.22L85.13-4.22Q86.16-3.94 86.16-2.58L86.16-2.58L86.25-1.03Q86.20-0.38 86.67-0.19L86.67-0.19L86.67 0L85.22 0Q85.08-0.61 85.03-2.16L85.03-2.16Q85.08-3.70 83.48-3.70L83.48-3.70ZM83.58-7.64L80.67-7.64L80.67-4.69L83.39-4.69Q85.13-4.69 85.13-6.19L85.13-6.19Q85.13-7.64 83.58-7.64L83.58-7.64ZM93.66-3.19L93.66-8.58L94.83-8.58L94.83-3.05Q94.69 0.05 91.31 0.14L91.31 0.14Q88.17 0.05 88.03-2.86L88.03-2.86L88.03-8.58L89.20-8.58L89.20-3.19Q89.25-0.84 91.36-0.80L91.36-0.80Q93.66-0.84 93.66-3.19L93.66-3.19ZM98.02-8.58L102.33-1.64L102.33-8.58L103.45-8.58L103.45 0L102.14 0L97.78-6.94L97.73-6.94L97.73 0L96.61 0L96.61-8.58L98.02-8.58ZM112.41-6.05L112.41-6.05L111.28-6.05Q110.86-7.78 108.89-7.83L108.89-7.83Q106.17-7.69 106.08-4.36L106.08-4.36Q106.08-0.80 108.94-0.80L108.94-0.80Q110.91-0.84 111.38-3.19L111.38-3.19L112.50-3.19Q111.98 0.05 108.70 0.14L108.70 0.14Q104.95 0 104.86-4.31L104.86-4.31Q105.05-8.63 108.89-8.81L108.89-8.81Q111.94-8.72 112.41-6.05ZM115.03-5.06L119.53-5.06L119.53-8.58L120.70-8.58L120.70 0L119.53 0L119.53-3.98L115.03-3.98L115.03 0L113.86 0L113.86-8.58L115.03-8.58L115.03-5.06ZM122.67-8.58L123.84-8.58L123.84 0L122.67 0L122.67-8.58Z" transform="translate(-0.515625, 8.8125)"></path></g></g></g></g></g><defs v-gra="od"></defs></svg>